<mxfile host="app.diagrams.net" agent="Mozilla/5.0 (Windows NT 10.0; Win64; x64) AppleWebKit/537.36 (KHTML, like Gecko) Chrome/133.0.0.0 Safari/537.36" version="26.0.16">
  <diagram name="Page-1" id="XYqX4XX9JJ41ehmEJZjC">
    <mxGraphModel dx="339" dy="180" grid="1" gridSize="10" guides="1" tooltips="1" connect="1" arrows="1" fold="1" page="1" pageScale="1" pageWidth="850" pageHeight="1100" math="0" shadow="0">
      <root>
        <mxCell id="0" />
        <mxCell id="1" parent="0" />
        <mxCell id="rMzAy10YbBftg1NZ0Pj3-18" value="" style="edgeStyle=orthogonalEdgeStyle;rounded=0;orthogonalLoop=1;jettySize=auto;html=1;" edge="1" parent="1" source="rMzAy10YbBftg1NZ0Pj3-4" target="rMzAy10YbBftg1NZ0Pj3-16">
          <mxGeometry relative="1" as="geometry" />
        </mxCell>
        <mxCell id="rMzAy10YbBftg1NZ0Pj3-19" value="" style="edgeStyle=orthogonalEdgeStyle;rounded=0;orthogonalLoop=1;jettySize=auto;html=1;" edge="1" parent="1" source="rMzAy10YbBftg1NZ0Pj3-4" target="rMzAy10YbBftg1NZ0Pj3-16">
          <mxGeometry relative="1" as="geometry" />
        </mxCell>
        <mxCell id="rMzAy10YbBftg1NZ0Pj3-21" style="edgeStyle=orthogonalEdgeStyle;rounded=0;orthogonalLoop=1;jettySize=auto;html=1;exitX=1;exitY=0.5;exitDx=0;exitDy=0;exitPerimeter=0;entryX=0;entryY=0.5;entryDx=0;entryDy=0;" edge="1" parent="1" source="rMzAy10YbBftg1NZ0Pj3-4" target="rMzAy10YbBftg1NZ0Pj3-13">
          <mxGeometry relative="1" as="geometry" />
        </mxCell>
        <mxCell id="rMzAy10YbBftg1NZ0Pj3-22" style="edgeStyle=orthogonalEdgeStyle;rounded=0;orthogonalLoop=1;jettySize=auto;html=1;exitX=1;exitY=0.5;exitDx=0;exitDy=0;exitPerimeter=0;entryX=0;entryY=0.5;entryDx=0;entryDy=0;" edge="1" parent="1" source="rMzAy10YbBftg1NZ0Pj3-4" target="rMzAy10YbBftg1NZ0Pj3-14">
          <mxGeometry relative="1" as="geometry" />
        </mxCell>
        <mxCell id="rMzAy10YbBftg1NZ0Pj3-23" style="edgeStyle=orthogonalEdgeStyle;rounded=0;orthogonalLoop=1;jettySize=auto;html=1;exitX=1;exitY=0.5;exitDx=0;exitDy=0;exitPerimeter=0;" edge="1" parent="1" source="rMzAy10YbBftg1NZ0Pj3-4" target="rMzAy10YbBftg1NZ0Pj3-15">
          <mxGeometry relative="1" as="geometry" />
        </mxCell>
        <mxCell id="rMzAy10YbBftg1NZ0Pj3-24" style="edgeStyle=orthogonalEdgeStyle;rounded=0;orthogonalLoop=1;jettySize=auto;html=1;exitX=1;exitY=0.5;exitDx=0;exitDy=0;exitPerimeter=0;entryX=0;entryY=0.5;entryDx=0;entryDy=0;" edge="1" parent="1" source="rMzAy10YbBftg1NZ0Pj3-4" target="rMzAy10YbBftg1NZ0Pj3-17">
          <mxGeometry relative="1" as="geometry">
            <Array as="points">
              <mxPoint x="390" y="259" />
              <mxPoint x="390" y="320" />
            </Array>
          </mxGeometry>
        </mxCell>
        <mxCell id="rMzAy10YbBftg1NZ0Pj3-4" value="" style="sketch=0;points=[[0,0,0],[0.25,0,0],[0.5,0,0],[0.75,0,0],[1,0,0],[0,1,0],[0.25,1,0],[0.5,1,0],[0.75,1,0],[1,1,0],[0,0.25,0],[0,0.5,0],[0,0.75,0],[1,0.25,0],[1,0.5,0],[1,0.75,0]];outlineConnect=0;fontColor=#232F3E;fillColor=#01A88D;strokeColor=#ffffff;dashed=0;verticalLabelPosition=bottom;verticalAlign=top;align=center;html=1;fontSize=12;fontStyle=0;aspect=fixed;shape=mxgraph.aws4.resourceIcon;resIcon=mxgraph.aws4.bedrock;" vertex="1" parent="1">
          <mxGeometry x="292" y="220" width="78" height="78" as="geometry" />
        </mxCell>
        <mxCell id="rMzAy10YbBftg1NZ0Pj3-7" value="" style="edgeStyle=orthogonalEdgeStyle;rounded=0;orthogonalLoop=1;jettySize=auto;html=1;" edge="1" parent="1" source="rMzAy10YbBftg1NZ0Pj3-5" target="rMzAy10YbBftg1NZ0Pj3-6">
          <mxGeometry relative="1" as="geometry" />
        </mxCell>
        <mxCell id="rMzAy10YbBftg1NZ0Pj3-5" value="" style="sketch=0;points=[[0,0,0],[0.25,0,0],[0.5,0,0],[0.75,0,0],[1,0,0],[0,1,0],[0.25,1,0],[0.5,1,0],[0.75,1,0],[1,1,0],[0,0.25,0],[0,0.5,0],[0,0.75,0],[1,0.25,0],[1,0.5,0],[1,0.75,0]];outlineConnect=0;fontColor=#232F3E;fillColor=#DD344C;strokeColor=#ffffff;dashed=0;verticalLabelPosition=bottom;verticalAlign=top;align=center;html=1;fontSize=12;fontStyle=0;aspect=fixed;shape=mxgraph.aws4.resourceIcon;resIcon=mxgraph.aws4.mobile;" vertex="1" parent="1">
          <mxGeometry x="22" y="220" width="78" height="78" as="geometry" />
        </mxCell>
        <mxCell id="rMzAy10YbBftg1NZ0Pj3-8" value="" style="edgeStyle=orthogonalEdgeStyle;rounded=0;orthogonalLoop=1;jettySize=auto;html=1;" edge="1" parent="1" source="rMzAy10YbBftg1NZ0Pj3-6" target="rMzAy10YbBftg1NZ0Pj3-4">
          <mxGeometry relative="1" as="geometry">
            <Array as="points">
              <mxPoint x="280" y="260" />
              <mxPoint x="280" y="260" />
            </Array>
          </mxGeometry>
        </mxCell>
        <mxCell id="rMzAy10YbBftg1NZ0Pj3-6" value="Query" style="rounded=1;whiteSpace=wrap;html=1;" vertex="1" parent="1">
          <mxGeometry x="132" y="240" width="120" height="40" as="geometry" />
        </mxCell>
        <mxCell id="rMzAy10YbBftg1NZ0Pj3-11" value="User" style="text;html=1;align=center;verticalAlign=middle;whiteSpace=wrap;rounded=0;" vertex="1" parent="1">
          <mxGeometry x="31" y="290" width="60" height="30" as="geometry" />
        </mxCell>
        <mxCell id="rMzAy10YbBftg1NZ0Pj3-12" value="LLM" style="text;html=1;align=center;verticalAlign=middle;whiteSpace=wrap;rounded=0;" vertex="1" parent="1">
          <mxGeometry x="301" y="290" width="60" height="30" as="geometry" />
        </mxCell>
        <mxCell id="rMzAy10YbBftg1NZ0Pj3-13" value="Related Query 1" style="rounded=1;whiteSpace=wrap;html=1;" vertex="1" parent="1">
          <mxGeometry x="402" y="190" width="120" height="20" as="geometry" />
        </mxCell>
        <mxCell id="rMzAy10YbBftg1NZ0Pj3-14" value="Related Query 2" style="rounded=1;whiteSpace=wrap;html=1;" vertex="1" parent="1">
          <mxGeometry x="402" y="220" width="120" height="20" as="geometry" />
        </mxCell>
        <mxCell id="rMzAy10YbBftg1NZ0Pj3-15" value="Related Query 3" style="rounded=1;whiteSpace=wrap;html=1;" vertex="1" parent="1">
          <mxGeometry x="402" y="250" width="120" height="20" as="geometry" />
        </mxCell>
        <mxCell id="rMzAy10YbBftg1NZ0Pj3-16" value=". . . . . ." style="rounded=1;whiteSpace=wrap;html=1;" vertex="1" parent="1">
          <mxGeometry x="402" y="280" width="120" height="20" as="geometry" />
        </mxCell>
        <mxCell id="rMzAy10YbBftg1NZ0Pj3-17" value="Related Query n" style="rounded=1;whiteSpace=wrap;html=1;" vertex="1" parent="1">
          <mxGeometry x="402" y="310" width="120" height="20" as="geometry" />
        </mxCell>
        <mxCell id="rMzAy10YbBftg1NZ0Pj3-28" value="" style="sketch=0;points=[[0,0,0],[0.25,0,0],[0.5,0,0],[0.75,0,0],[1,0,0],[0,1,0],[0.25,1,0],[0.5,1,0],[0.75,1,0],[1,1,0],[0,0.25,0],[0,0.5,0],[0,0.75,0],[1,0.25,0],[1,0.5,0],[1,0.75,0]];outlineConnect=0;fontColor=#232F3E;fillColor=#01A88D;strokeColor=#ffffff;dashed=0;verticalLabelPosition=bottom;verticalAlign=top;align=center;html=1;fontSize=12;fontStyle=0;aspect=fixed;shape=mxgraph.aws4.resourceIcon;resIcon=mxgraph.aws4.bedrock;" vertex="1" parent="1">
          <mxGeometry x="590" y="160" width="50" height="50" as="geometry" />
        </mxCell>
        <mxCell id="rMzAy10YbBftg1NZ0Pj3-29" value="&lt;b&gt;Explained Query&lt;/b&gt; &lt;font style=&quot;font-size: 16px;&quot;&gt;&lt;i style=&quot;&quot;&gt;i&lt;/i&gt;&lt;/font&gt;" style="rounded=1;whiteSpace=wrap;html=1;" vertex="1" parent="1">
          <mxGeometry x="555" y="230" width="120" height="20" as="geometry" />
        </mxCell>
        <mxCell id="rMzAy10YbBftg1NZ0Pj3-31" value="" style="sketch=0;points=[[0,0,0],[0.25,0,0],[0.5,0,0],[0.75,0,0],[1,0,0],[0,1,0],[0.25,1,0],[0.5,1,0],[0.75,1,0],[1,1,0],[0,0.25,0],[0,0.5,0],[0,0.75,0],[1,0.25,0],[1,0.5,0],[1,0.75,0]];outlineConnect=0;fontColor=#232F3E;fillColor=#C925D1;strokeColor=#ffffff;dashed=0;verticalLabelPosition=bottom;verticalAlign=top;align=center;html=1;fontSize=12;fontStyle=0;aspect=fixed;shape=mxgraph.aws4.resourceIcon;resIcon=mxgraph.aws4.documentdb_with_mongodb_compatibility;" vertex="1" parent="1">
          <mxGeometry x="500" y="370" width="78" height="78" as="geometry" />
        </mxCell>
        <mxCell id="rMzAy10YbBftg1NZ0Pj3-32" value="" style="sketch=0;points=[[0,0,0],[0.25,0,0],[0.5,0,0],[0.75,0,0],[1,0,0],[0,1,0],[0.25,1,0],[0.5,1,0],[0.75,1,0],[1,1,0],[0,0.25,0],[0,0.5,0],[0,0.75,0],[1,0.25,0],[1,0.5,0],[1,0.75,0]];outlineConnect=0;fontColor=#232F3E;fillColor=#01A88D;strokeColor=#ffffff;dashed=0;verticalLabelPosition=bottom;verticalAlign=top;align=center;html=1;fontSize=12;fontStyle=0;aspect=fixed;shape=mxgraph.aws4.resourceIcon;resIcon=mxgraph.aws4.deep_learning_amis;" vertex="1" parent="1">
          <mxGeometry x="590" y="280" width="50" height="50" as="geometry" />
        </mxCell>
      </root>
    </mxGraphModel>
  </diagram>
</mxfile>
